<?xml version="1.0" encoding="UTF-8" standalone="no"?>
<!-- Generator: Adobe Illustrator 16.0.0, SVG Export Plug-In . SVG Version: 6.00 Build 0)  -->

<svg
  xmlns:dc="http://purl.org/dc/elements/1.1/"
  xmlns:cc="http://creativecommons.org/ns#"
  xmlns:rdf="http://www.w3.org/1999/02/22-rdf-syntax-ns#"
  xmlns:svg="http://www.w3.org/2000/svg"
  xmlns="http://www.w3.org/2000/svg"
  version="1.1"
  id="Layer_1"
  x="0px"
  y="0px"
  width="169"
  height="67"
  viewBox="0 0 169 67"
  enable-background="new 0 0 240.94 155.91"
  xml:space="preserve">
    <metadata id="metadata3107">
      <rdf:RDF>
        <cc:Work rdf:about="">
          <dc:format>image/svg+xml</dc:format>
          <dc:type rdf:resource="http://purl.org/dc/dcmitype/StillImage" />
        </cc:Work>
      </rdf:RDF>
    </metadata>
    <defs id="defs3105">
      <clipPath id="myClip">
        <polygon points="7,0 169,0 169,67 0,67, 0,10" />
      </clipPath>
    </defs>
    <rect x="0" y="0" width="169" height="67" id="rect3067" style="opacity:0.8" clip-path="url(#myClip)" />
    <path
     style="fill:#ffffff;stroke:#ffffff;stroke-width:0.98782438;stroke-opacity:1"
     id="path3071"
     d="m 62.639416,18.509721 h 0.185394 v 0.379 h -0.185394 -8.690315 v 6.06411 h 6.472363 0.184421 v 0.379 h -0.184421 -6.472363 v 6.06407 h 8.690315 0.185394 v 0.379 h -0.185394 -8.875715 -0.185397 v -0.189 -6.25407 -0.379 -6.25411 -0.189 h 0.185397 8.875715 z" /><path
     style="fill:#ffffff;stroke:#ffffff;stroke-width:0.98782438;stroke-opacity:1"
     id="path3073"
     d="m 66.150274,31.585901 v 0.189 H 65.77948 v -0.189 -12.88718 -0.189 h 0.2781 l 0.05562,0.075 8.542967,12.39518 v -12.28018 -0.189 h 0.370799 v 0.189 12.88718 0.189 H 74.74887 l -0.05561,-0.076 -8.542971,-12.39418 v 12.28018 z" /><path
     style="fill:#ffffff;stroke:#ffffff;stroke-width:0.98782438;stroke-opacity:1"
     id="path3075"
     d="m 87.192034,21.427771 0.110266,0.151 -0.295664,0.228 -0.111238,-0.151 -2.163311,-2.76705 h -4.253431 l -2.126228,2.72905 v 7.05012 l 2.126228,2.72901 h 4.253431 l 2.126233,-2.72901 v -3.33506 h -4.252459 -0.184423 v -0.379 h 0.184423 4.437857 0.185397 v 0.189 3.60106 0.076 l -0.03709,0.037 -2.218929,2.84301 -0.05562,0.076 h -0.09274 -4.43883 -0.09271 l -0.05562,-0.076 -2.218928,-2.84301 -0.03709,-0.037 v -0.076 -7.20112 -0.076 l 0.03709,-0.038 2.218928,-2.84305 0.05562,-0.075 h 0.09271 4.43883 0.09274 l 0.05562,0.075 2.218929,2.84205 z" /><path
     style="fill:#ffffff;stroke:#ffffff;stroke-width:0.98782438;stroke-opacity:1"
     id="path3077"
     d="m 92.792048,31.395901 h 2.033531 0.184422 v 0.379 h -0.184422 -2.033531 -0.369823 -2.053044 -0.184424 v -0.379 h 0.184424 2.053044 v -12.50818 h -2.053044 -0.184424 v -0.379 h 0.184424 2.053044 0.369823 2.033531 0.184422 v 0.379 h -0.184422 -2.033531 v 12.50818 z" /><path
     style="fill:#ffffff;stroke:#ffffff;stroke-width:0.98782438;stroke-opacity:1"
     id="path3079"
     d="m 98.338394,31.585901 v 0.189 H 97.9676 v -0.189 -12.88718 -0.189 h 0.278093 l 0.05582,0.075 8.542987,12.39518 v -12.28018 -0.189 h 0.3708 v 0.189 12.88718 0.189 h -0.27807 l -0.0557,-0.076 -8.542984,-12.39418 v 12.28018 z" /><path
     style="fill:#ffffff;stroke:#ffffff;stroke-width:0.98782438;stroke-opacity:1"
     id="path3081"
     d="m 119.23085,18.509721 h 0.1854 v 0.379 h -0.1854 -8.69031 v 6.06411 h 6.47237 0.18442 v 0.379 h -0.18442 -6.47237 v 6.06407 h 8.69031 0.1854 v 0.379 h -0.1854 -8.87571 -0.1854 v -0.189 -6.25407 -0.379 -6.25411 -0.189 h 0.1854 8.87571 z" /><path
     style="fill:#ffffff;stroke:#ffffff;stroke-width:0.98782438;stroke-opacity:1"
     id="path3083"
     d="m 131.43398,18.509721 h 0.18443 v 0.379 h -0.18443 -8.69128 v 6.06411 h 6.47237 0.18442 v 0.379 h -0.18442 -6.47237 v 6.06407 h 8.69128 0.18443 v 0.379 h -0.18443 -8.87766 -0.1844 v -0.189 -6.25407 -0.379 -6.25411 -0.189 h 0.1844 8.87766 z" /><path
     style="fill:#ffffff;stroke:#ffffff;stroke-width:0.98782438;stroke-opacity:1"
     id="path3085"
     d="m 141.64165,25.141831 2.14087,3.10701 0.037,0.058 v 0.057 3.22203 0.189 h -0.37079 v -0.189 -3.16501 l -2.13014,-3.08906 h -6.37577 v 6.25407 0.189 h -0.3708 v -0.189 -6.25407 -0.379 -6.25411 -0.189 h 0.18539 6.65677 0.0925 l 0.0557,0.075 2.21893,3.22205 0.0736,0.114 -0.0736,0.113 -2.13988,3.10806 z m -6.69778,-0.189 h 6.37967 l 2.09012,-3.03206 -2.09012,-3.03205 h -6.37967 v 6.06411 z" /><path
     style="fill:#1d71b8;stroke:#1d71b8;stroke-width:0.98782438;stroke-opacity:1"
     id="path3087"
     d="m 83.264516,42.181071 2.095976,3.12106 0.07319,0.114 -0.07319,0.113 -2.164284,3.22206 -0.05562,0.076 h -0.09273 -6.527979 -0.184424 v -0.189 -6.25411 -0.37901 -6.25411 -0.189 h 0.184424 6.527979 0.09273 l 0.05562,0.075 2.164284,3.22206 0.07319,0.114 -0.07319,0.113 -2.095976,3.09505 z m -0.32689,-0.176 2.053043,-3.03205 -2.034505,-3.03206 h -6.249879 v 6.06411 h 6.231341 z m -6.230366,0.37901 v 6.06411 h 6.249884 l 2.034505,-3.03206 -2.034505,-3.03205 H 76.70726 z" /><path
     style="fill:#1d71b8;stroke:#1d71b8;stroke-width:0.98782438;stroke-opacity:1"
     id="path3089"
     d="m 97.414326,35.560961 h 0.185401 v 0.379 h -0.185401 -8.690314 v 6.06411 h 6.472364 0.184423 v 0.37901 h -0.184423 -6.472364 v 6.06411 h 8.690314 0.185401 v 0.379 h -0.185401 -8.875712 -0.185399 v -0.189 -6.25411 -0.37901 -6.25411 -0.189 h 0.185399 8.875712 z" /><path
     style="fill:#1d71b8;stroke:#1d71b8;stroke-width:0.98782438;stroke-opacity:1"
     id="path3091"
     d="m 104.07013,35.560961 h 4.25247 0.18444 v 0.379 h -0.18444 -4.25247 v 12.69723 0.189 h -0.36982 v -0.189 -12.69723 h -4.253432 -0.18442 v -0.379 h 0.18442 4.253432 0.36982 z" /><path
     style="fill:#1d71b8;stroke:#1d71b8;stroke-width:0.98782438;stroke-opacity:1"
     id="path3093"
     d="m 114.97742,35.560961 h 4.25246 0.18443 v 0.379 h -0.18443 -4.25246 v 12.69723 0.189 h -0.3708 v -0.189 -12.69723 h -4.25245 -0.18443 v -0.379 h 0.18443 4.25245 0.3708 z" /><path
     style="fill:#1d71b8;stroke:#1d71b8;stroke-width:0.98782438;stroke-opacity:1"
     id="path3095"
     d="m 131.43398,35.560961 h 0.18443 v 0.379 h -0.18443 -8.69128 v 6.06411 h 6.47237 0.18442 v 0.37901 h -0.18442 -6.47237 v 6.06411 h 8.69128 0.18443 v 0.379 h -0.18443 -8.87766 -0.1844 v -0.189 -6.25411 -0.37901 -6.25411 -0.189 h 0.1844 8.87766 z" /><path
     style="fill:#1d71b8;stroke:#1d71b8;stroke-width:0.98782438;stroke-opacity:1"
     id="path3097"
     d="m 141.64165,42.194071 2.14087,3.10706 0.037,0.058 v 0.057 3.22206 0.189 h -0.37079 v -0.189 -3.16506 l -2.13014,-3.08905 h -6.37577 v 6.25411 0.189 h -0.3708 v -0.189 -6.25411 -0.37901 -6.25411 -0.189 h 0.18539 6.65677 0.0925 l 0.0557,0.075 2.21893,3.22206 0.0736,0.114 -0.0736,0.113 -2.13988,3.10805 z m -6.69778,-0.189 h 6.37967 l 2.09012,-3.03205 -2.09012,-3.03206 h -6.37967 v 6.06411 z" /><g
     id="g3099"
     style="stroke:#1d71b8;stroke-opacity:1"
     transform="matrix(0.97578181,0,0,1.0000155,-65.81348,-88.799949)"><polygon
       points="221.418,127.823 219.276,130.855 219.603,131.045 221.872,127.823 219.522,124.487 219.203,124.714 "
       id="polygon3101"
       style="fill:#1d71b8;stroke:#1d71b8;stroke-opacity:1" /></g></svg>